<?xml version="1.0" encoding="UTF-8"?>
<!-- Generated by Pixelmator Pro 3.6.9 -->
<svg width="1419" height="2065" viewBox="0 0 1419 2065" xmlns="http://www.w3.org/2000/svg">
    <g id="Group-copy">
        <g id="Group">
            <linearGradient id="linearGradient1" x1="740.078125" y1="1636.319207" x2="780.263585" y2="1691.230122" gradientUnits="userSpaceOnUse" gradientTransform="matrix(0.574845 -0.818263 0.818263 0.574845 -1153.930498 1271.638565)">
                <stop offset="0.021622" stop-color="#ff4e00" stop-opacity="1"/>
                <stop offset="0.67027" stop-color="#ffff5b" stop-opacity="1"/>
                <stop offset="1" stop-color="#ffffff" stop-opacity="1"/>
            </linearGradient>
            <path id="Path" fill="url(#linearGradient1)" stroke="none" d="M 612.20697 1638.340332 C 612.20697 1638.340332 606.684631 1893.442871 648.684326 1892.629761 C 690.684448 1891.817017 678.314819 1620.958496 678.314819 1620.958496 L 612.20697 1638.340332 Z"/>
            <linearGradient id="linearGradient2" x1="876.846785" y1="1633.671599" x2="917.032245" y2="1688.582514" gradientUnits="userSpaceOnUse" gradientTransform="matrix(0.574845 -0.818263 0.818263 0.574845 -1093.616132 1382.425523)">
                <stop offset="0.021622" stop-color="#ff4e00" stop-opacity="1"/>
                <stop offset="0.67027" stop-color="#ffff5b" stop-opacity="1"/>
                <stop offset="1" stop-color="#ffffff" stop-opacity="1"/>
            </linearGradient>
            <path id="path1" fill="url(#linearGradient2)" stroke="none" d="M 748.975525 1635.692505 C 748.975525 1635.692505 743.453064 1890.795044 785.453186 1889.9823 C 827.452881 1889.169189 815.083191 1618.310791 815.083191 1618.310791 L 748.975525 1635.692505 Z"/>
            <g id="g1">
                <linearGradient id="linearGradient3" x1="-119.79689" y1="1276.793435" x2="386.842567" y2="-38.450562" gradientUnits="userSpaceOnUse" gradientTransform="matrix(0.574845 -0.818263 0.818263 0.574845 -471.793528 1068.551891)">
                    <stop offset="0.005405" stop-color="#fffef3" stop-opacity="1"/>
                    <stop offset="1" stop-color="#f4b394" stop-opacity="1"/>
                </linearGradient>
                <path id="path2" fill="url(#linearGradient3)" stroke="none" d="M 1257.360107 1395.424561 L 197.89888 1415.93457 C 197.89888 1415.93457 200.883759 1325.915283 235.697845 1285.883545 C 270.511169 1245.851318 507.619476 1030.414063 506.531616 974.208862 C 505.443268 918.004272 582.535461 82.55542 694.944824 80.379883 C 807.354736 78.203735 906.64856 941.161743 929.199463 971.649414 C 951.749023 1002.137329 1198.108765 1239.138916 1218.596558 1280.911499 C 1239.084229 1322.685181 1257.360107 1395.424561 1257.360107 1395.424561 Z"/>
                <radialGradient id="radialGradient1" cx="687.560062" cy="1470.605732" r="324.483516" fx="687.560062" fy="1470.605732" gradientUnits="userSpaceOnUse" gradientTransform="matrix(0.574845 -0.818263 0.818263 0.574845 -869.349948 1205.695629)">
                    <stop offset="0" stop-color="#ff7e73" stop-opacity="1"/>
                    <stop offset="0.994595" stop-color="#bf282f" stop-opacity="1"/>
                </radialGradient>
                <path id="path3" fill="url(#radialGradient1)" stroke="none" d="M 197.89888 1415.93457 L 199.280655 1487.29248 L 717.982178 1571.490723 L 1255.231689 1460.118896 L 1257.360107 1395.424561 L 197.89888 1415.93457 Z"/>
                <linearGradient id="linearGradient4" x1="640.837844" y1="1080.084025" x2="1313.126015" y2="671.207365" gradientUnits="userSpaceOnUse" gradientTransform="matrix(0.574845 -0.818263 0.818263 0.574845 -491.286164 1163.14917)">
                    <stop offset="0.005405" stop-color="#fffef3" stop-opacity="1"/>
                    <stop offset="1" stop-color="#f4b394" stop-opacity="1"/>
                </linearGradient>
                <path id="path4" fill="url(#linearGradient4)" stroke="none" style="mix-blend-mode:multiply" d="M 824.933044 526.890259 L 965.720825 1520.134644 L 864.4953 1541.118164 L 784.168335 1159.295654 L 824.933044 526.890259 Z"/>
                <linearGradient id="linearGradient5" x1="1058.797303" y1="502.771844" x2="1184.392835" y2="674.390169" gradientUnits="userSpaceOnUse" gradientTransform="matrix(0.574845 -0.818263 0.818263 0.574845 -437.399557 963.790178)">
                    <stop offset="0.005405" stop-color="#fffef3" stop-opacity="1"/>
                    <stop offset="0.5" stop-color="#f4b394" stop-opacity="1"/>
                    <stop offset="0.943243" stop-color="#fef7ea" stop-opacity="1"/>
                </linearGradient>
                <path id="path5" fill="url(#linearGradient5)" stroke="none" d="M 841.903076 1403.467773 L 595.104004 1408.244629 L 575.62738 402.150391 L 822.426208 397.373413 L 841.903076 1403.467773 Z"/>
                <radialGradient id="radialGradient2" cx="744.679817" cy="248.687388" r="153.870218" fx="744.679817" fy="248.687388" gradientUnits="userSpaceOnUse" gradientTransform="matrix(0.574845 -0.818263 0.818263 0.574845 64.368767 706.478091)">
                    <stop offset="0" stop-color="#ff7e73" stop-opacity="1"/>
                    <stop offset="0.994595" stop-color="#bf282f" stop-opacity="1"/>
                </radialGradient>
                <path id="path6" fill="url(#radialGradient2)" stroke="none" d="M 575.62738 402.150391 C 575.62738 402.150391 614.624329 81.934326 694.944824 80.379883 C 775.265869 78.824829 822.426208 397.373413 822.426208 397.373413 L 575.62738 402.150391 Z"/>
                <linearGradient id="linearGradient6" x1="727.489772" y1="37.952855" x2="810.992653" y2="152.053984" gradientUnits="userSpaceOnUse" gradientTransform="matrix(0.574845 -0.818263 0.818263 0.574845 174.464927 639.636157)">
                    <stop offset="0" stop-color="#f4b394" stop-opacity="1"/>
                    <stop offset="0.994595" stop-color="#fffef3" stop-opacity="1"/>
                </linearGradient>
                <path id="path7" fill="url(#linearGradient6)" stroke="none" d="M 702.618042 176.63855 C 725.365234 176.198242 747.10376 174.172363 767.159851 170.869385 C 747.654114 119.489502 723.391479 79.828613 694.944824 80.379883 C 666.854736 80.923706 643.836792 120.483521 625.755737 171.649536 C 649.201172 175.343018 675.221252 177.168579 702.618042 176.63855 Z"/>
                <g id="g2">
                    <radialGradient id="radialGradient3" cx="710.661528" cy="598.683119" r="87.646693" fx="710.661528" fy="598.683119" gradientUnits="userSpaceOnUse" gradientTransform="matrix(0.574845 -0.818263 0.818263 0.574845 -186.367122 827.118815)">
                        <stop offset="0" stop-color="#ff7e73" stop-opacity="1"/>
                        <stop offset="0.994595" stop-color="#bf282f" stop-opacity="1"/>
                    </radialGradient>
                    <path id="path8" fill="url(#radialGradient3)" stroke="none" d="M 826.214111 593.066895 L 826.049011 584.514771 C 718.997437 570.167114 613.528259 586.450195 579.316162 592.726685 L 579.482361 601.296265 C 611.693481 595.30127 718.313049 578.345215 826.214111 593.066895 Z"/>
                    <radialGradient id="radialGradient4" cx="715.437694" cy="845.425951" r="87.645841" fx="715.437694" fy="845.425951" gradientUnits="userSpaceOnUse" gradientTransform="matrix(0.574845 -0.818263 0.818263 0.574845 -386.236222 935.931711)">
                        <stop offset="0" stop-color="#ff7e73" stop-opacity="1"/>
                        <stop offset="0.994595" stop-color="#bf282f" stop-opacity="1"/>
                    </radialGradient>
                    <path id="path9" fill="url(#radialGradient4)" stroke="none" d="M 584.093018 839.469116 L 584.259155 848.036987 C 616.469482 842.040649 723.090332 825.092773 830.99054 839.811035 L 830.825256 831.258057 C 723.774231 816.910645 618.304565 833.193115 584.093018 839.469116 Z"/>
                    <radialGradient id="radialGradient5" cx="720.214781" cy="1092.16805" r="87.646096" fx="720.214781" fy="1092.16805" gradientUnits="userSpaceOnUse" gradientTransform="matrix(0.574845 -0.818263 0.818263 0.574845 -586.105441 1044.744698)">
                        <stop offset="0" stop-color="#ff7e73" stop-opacity="1"/>
                        <stop offset="0.994595" stop-color="#bf282f" stop-opacity="1"/>
                    </radialGradient>
                    <path id="path10" fill="url(#radialGradient5)" stroke="none" d="M 589.036072 1094.779541 C 621.24646 1088.781006 727.867004 1071.829468 835.7677 1086.552856 L 835.602051 1078.000244 C 728.551025 1063.653076 623.080994 1079.935547 588.870605 1086.212158 L 589.036072 1094.779541 Z"/>
                </g>
                <g id="g3">
                    <linearGradient id="linearGradient7" x1="881.895633" y1="613.57254" x2="306.091111" y2="1034.964117" gradientUnits="userSpaceOnUse" gradientTransform="matrix(0.574845 -0.818263 0.818263 0.574845 -301.253739 864.234822)">
                        <stop offset="0" stop-color="#ffffff" stop-opacity="1"/>
                        <stop offset="0.989189" stop-color="#cf793a" stop-opacity="0"/>
                    </linearGradient>
                    <path id="path11" fill="url(#linearGradient7)" stroke="none" style="mix-blend-mode:overlay" d="M 684.192566 82.750122 C 683.213623 83.123291 682.225952 83.430054 681.260742 83.89978 C 680.864624 84.092773 680.462097 84.234741 680.068359 84.442749 C 678.023315 85.52417 676.012268 86.835205 674.028748 88.316895 C 673.461914 88.740356 672.904236 89.219604 672.342712 89.673462 C 670.835876 90.892944 669.347412 92.218872 667.876221 93.655884 C 667.299866 94.217285 666.71936 94.753784 666.14856 95.3479 C 664.310852 97.263306 662.497253 99.317627 660.716614 101.549927 C 660.163635 102.24231 659.624878 103.009155 659.077759 103.730835 C 657.786682 105.433472 656.509583 107.203613 655.248962 109.06189 C 654.549194 110.091919 653.852478 111.129517 653.162781 112.205078 C 651.876465 114.211792 650.608765 116.306763 649.354492 118.464722 C 648.453125 120.014648 647.563538 121.608887 646.679077 123.231201 C 645.603271 125.206909 644.534729 127.210571 643.483582 129.288208 C 642.683289 130.869019 641.893555 132.484863 641.107544 134.12146 C 640.296997 135.812256 639.498047 137.541626 638.702637 139.28772 C 637.376526 142.195557 636.075073 145.175903 634.791443 148.228027 C 634.060059 149.969727 633.322449 151.69458 632.60437 153.478638 C 631.717957 155.680786 630.850342 157.933105 629.984924 160.195313 C 629.453491 161.584473 628.926025 162.981812 628.403076 164.392822 C 627.512878 166.790283 626.62561 169.1875 625.758179 171.641968 C 625.757507 171.644165 625.756531 171.647217 625.755737 171.649536 C 622.764526 180.113892 619.914429 188.906982 617.194275 197.885376 L 639.18988 1334.10498 L 708.391235 1332.764893 L 684.192566 82.750122 Z"/>
                    <linearGradient id="linearGradient8" x1="1107.864518" y1="656.692069" x2="506.835411" y2="1059.861648" gradientUnits="userSpaceOnUse" gradientTransform="matrix(0.574845 -0.818263 0.818263 0.574845 -295.686578 946.566303)">
                        <stop offset="0.005405" stop-color="#fffef3" stop-opacity="1"/>
                        <stop offset="1" stop-color="#f4b394" stop-opacity="1"/>
                    </linearGradient>
                    <path id="path12" fill="url(#linearGradient8)" stroke="none" style="mix-blend-mode:multiply" d="M 754.871338 1331.865356 L 776.694946 1404.729248 L 823.359558 1403.826172 L 841.792969 1397.77417 L 822.425415 397.372803 C 822.425415 397.372803 801.423523 255.752686 763.62262 161.829468 C 763.437866 161.37146 763.250977 160.921997 763.066162 160.466675 C 759.679565 152.131592 756.162476 144.202759 752.512329 136.776489 C 751.922974 135.576904 751.330139 134.39502 750.734436 133.222412 C 749.734619 131.258789 748.734192 129.305786 747.715332 127.423706 C 746.728516 125.597656 745.72345 123.858521 744.718201 122.115601 C 743.452637 119.923218 742.175293 117.803467 740.881104 115.750732 C 739.879822 114.158203 738.872803 112.591187 737.854065 111.087158 C 737.033264 109.878418 736.210815 108.69397 735.379761 107.5448 C 734.103455 105.776978 732.811279 104.104858 731.509521 102.48584 C 730.90271 101.731812 730.304932 100.929199 729.692688 100.209717 C 727.91925 98.121216 726.117859 96.218872 724.298462 94.428589 C 723.63147 93.772217 722.958252 93.169189 722.285217 92.55542 C 720.82373 91.219116 719.346802 89.993042 717.855896 88.863037 C 717.276611 88.424683 716.703125 87.94812 716.119263 87.54187 C 714.107117 86.138794 712.070923 84.922607 710.008118 83.918091 C 709.535156 83.687744 709.052917 83.529663 708.576782 83.321045 C 708.576782 83.321045 797.96521 282.09668 754.871338 1331.865356 Z"/>
                </g>
                <linearGradient id="linearGradient9" x1="346.141276" y1="1095.15676" x2="1024.247928" y2="682.741802" gradientUnits="userSpaceOnUse" gradientTransform="matrix(0.574845 -0.818263 0.818263 0.574845 -629.529702 921.247714)">
                    <stop offset="0.005405" stop-color="#fffef3" stop-opacity="1"/>
                    <stop offset="1" stop-color="#f4b394" stop-opacity="1"/>
                </linearGradient>
                <path id="path13" fill="url(#linearGradient9)" stroke="none" style="mix-blend-mode:multiply" d="M 578.684265 531.65686 L 463.826996 1530.234375 L 598.462891 1553.333008 L 578.684265 531.65686 Z"/>
                <clipPath id="clipPath1">
                    <path d="M 1257.360077 1395.424644 L 197.898859 1415.934554 C 197.898859 1415.934554 200.883731 1325.915205 235.697817 1285.883528 C 270.511156 1245.851327 507.619445 1030.414046 506.531594 974.208887 C 505.443256 918.004223 582.535442 82.555411 694.944806 80.379877 C 807.354722 78.203754 906.648522 941.161728 929.199457 971.649439 C 951.749002 1002.13729 1198.10878 1239.138889 1218.596603 1280.911484 C 1239.084209 1322.685181 1257.360077 1395.424644 1257.360077 1395.424644 Z"/>
                </clipPath>
                <g id="g4" clip-path="url(#clipPath1)">
                    <radialGradient id="radialGradient6" cx="328.939089" cy="1174.402089" r="543.491215" fx="328.939089" fy="1174.402089" gradientUnits="userSpaceOnUse" gradientTransform="matrix(0.574845 -0.818263 0.818263 0.574845 -801.397272 775.114885)">
                        <stop offset="0" stop-color="#ff7e73" stop-opacity="1"/>
                        <stop offset="0.994595" stop-color="#bf282f" stop-opacity="1"/>
                    </radialGradient>
                    <path id="path14" fill="url(#radialGradient6)" stroke="none" d="M 506.531616 974.208862 L 485.608276 1077.116211 C 485.608276 1077.116211 278.863586 1284.686279 259.569458 1307.617676 C 240.27562 1330.54834 245.855682 1386.835449 245.855682 1386.835449 L 189.72348 1332.834229 L 317.204681 1080.376099 L 506.531616 974.208862 Z"/>
                    <radialGradient id="radialGradient7" cx="1087.721175" cy="1174.3239" r="125.823213" fx="1087.721175" fy="1174.3239" gradientUnits="userSpaceOnUse" gradientTransform="matrix(0.574845 -0.818263 0.818263 0.574845 -485.619295 1381.487382)">
                        <stop offset="0" stop-color="#ff7e73" stop-opacity="1"/>
                        <stop offset="0.994595" stop-color="#bf282f" stop-opacity="1"/>
                    </radialGradient>
                    <path id="path15" fill="url(#radialGradient7)" stroke="none" d="M 934.797913 965.918457 L 959.689026 1067.938232 C 959.689026 1067.938232 1174.311523 1267.351318 1194.479004 1289.518555 C 1214.645752 1311.686035 1211.248535 1368.145752 1211.248535 1368.145752 L 1265.248779 1312.013794 L 1128.092651 1064.678101 L 934.797913 965.918457 Z"/>
                </g>
                <g id="g5">
                    <linearGradient id="linearGradient10" x1="677.658286" y1="1520.489763" x2="729.836797" y2="1591.788401" gradientUnits="userSpaceOnUse" gradientTransform="matrix(0.574845 -0.818263 0.818263 0.574845 -1041.90745 1218.335396)">
                        <stop offset="0.005405" stop-color="#fffef3" stop-opacity="1"/>
                        <stop offset="0.5" stop-color="#f4b394" stop-opacity="1"/>
                        <stop offset="0.943243" stop-color="#fef7ea" stop-opacity="1"/>
                    </linearGradient>
                    <path id="path16" fill="url(#linearGradient10)" stroke="none" d="M 626.15509 1552.797363 L 591.153442 1654.848999 L 689.321106 1652.948608 L 687.359375 1551.612183 L 626.15509 1552.797363 Z"/>
                    <linearGradient id="linearGradient11" x1="874.339695" y1="1607.40334" x2="822.161184" y2="1536.104702" gradientUnits="userSpaceOnUse" gradientTransform="matrix(0.574845 -0.818263 0.818263 0.574845 -984.041286 1324.625443)">
                        <stop offset="0.005405" stop-color="#fffef3" stop-opacity="1"/>
                        <stop offset="0.5" stop-color="#f4b394" stop-opacity="1"/>
                        <stop offset="0.943243" stop-color="#fef7ea" stop-opacity="1"/>
                    </linearGradient>
                    <path id="path17" fill="url(#linearGradient11)" stroke="none" d="M 800.095093 1549.429932 L 839.020386 1650.050171 L 740.852234 1651.951172 L 738.890503 1550.614746 L 800.095093 1549.429932 Z"/>
                    <g id="g6">
                        <linearGradient id="linearGradient12" x1="723.873564" y1="1310.930804" x2="805.363464" y2="1422.282001" gradientUnits="userSpaceOnUse" gradientTransform="matrix(0.574845 -0.818263 0.818263 0.574845 -927.21 1157.407276)">
                            <stop offset="0.005405" stop-color="#fffef3" stop-opacity="1"/>
                            <stop offset="0.72973" stop-color="#f4b394" stop-opacity="1"/>
                            <stop offset="0.943243" stop-color="#fef7ea" stop-opacity="1"/>
                        </linearGradient>
                        <path id="path18" fill="url(#linearGradient12)" stroke="none" d="M 715.635498 1588.363892 L 562.320251 1591.332642 L 558.974365 1418.497681 C 558.075012 1372.016602 595.025757 1333.605957 641.507141 1332.706421 L 710.660034 1331.367432 L 715.635498 1588.363892 Z"/>
                        <linearGradient id="linearGradient13" x1="720.12636" y1="1616.129086" x2="618.773072" y2="1477.635362" gradientUnits="userSpaceOnUse" gradientTransform="matrix(0.574845 -0.818263 0.818263 0.574845 -874.426009 1261.344798)">
                            <stop offset="0.005405" stop-color="#fffef3" stop-opacity="1"/>
                            <stop offset="0.72973" stop-color="#f4b394" stop-opacity="1"/>
                            <stop offset="0.943243" stop-color="#fef7ea" stop-opacity="1"/>
                        </linearGradient>
                        <path id="path19" fill="url(#linearGradient13)" stroke="none" d="M 712.038635 1588.434204 L 865.354187 1585.46582 L 862.007874 1412.63147 C 861.107666 1366.149902 822.698242 1329.19873 776.216431 1330.098145 L 707.063965 1331.437256 L 712.038635 1588.434204 Z"/>
                    </g>
                    <g id="g7">
                        <radialGradient id="radialGradient8" cx="610.675398" cy="1710.052324" r="170.754117" fx="610.675398" fy="1710.052324" gradientUnits="userSpaceOnUse" gradientTransform="matrix(0.574845 -0.818263 0.818263 0.574845 -1068.665707 1224.278982)">
                            <stop offset="0" stop-color="#ff7e73" stop-opacity="1"/>
                            <stop offset="0.994595" stop-color="#bf282f" stop-opacity="1"/>
                        </radialGradient>
                        <path id="path20" fill="url(#radialGradient8)" stroke="none" d="M 689.321106 1652.948608 L 688.697998 1620.757568 L 602.272034 1622.430664 L 591.153442 1654.848999 L 689.321106 1652.948608 Z"/>
                        <radialGradient id="radialGradient9" cx="643.803115" cy="1635.78859" r="35.25822" fx="643.803115" fy="1635.78859" gradientUnits="userSpaceOnUse" gradientTransform="matrix(0.574845 -0.818263 0.818263 0.574845 -1068.665707 1224.278982)">
                            <stop offset="0" stop-color="#ff7e73" stop-opacity="1"/>
                            <stop offset="0.994595" stop-color="#bf282f" stop-opacity="1"/>
                        </radialGradient>
                        <path id="path21" fill="url(#radialGradient9)" stroke="none" d="M 689.321106 1652.948608 L 688.697998 1620.757568 L 602.272034 1622.430664 L 591.153442 1654.848999 L 689.321106 1652.948608 Z"/>
                        <radialGradient id="radialGradient10" cx="669.546212" cy="1591.179652" r="153.13291" fx="669.546212" fy="1591.179652" gradientUnits="userSpaceOnUse" gradientTransform="matrix(0.574845 -0.818263 0.818263 0.574845 -1005.238219 1340.784084)">
                            <stop offset="0" stop-color="#ff7e73" stop-opacity="1"/>
                            <stop offset="0.994595" stop-color="#bf282f" stop-opacity="1"/>
                        </radialGradient>
                        <path id="path22" fill="url(#radialGradient10)" stroke="none" d="M 839.020386 1650.050171 L 826.655518 1618.08728 L 740.22876 1619.759888 L 740.852234 1651.951172 L 839.020386 1650.050171 Z"/>
                        <radialGradient id="radialGradient11" cx="791.099422" cy="1637.743083" r="31.619704" fx="791.099422" fy="1637.743083" gradientUnits="userSpaceOnUse" gradientTransform="matrix(0.574845 -0.818263 0.818263 0.574845 -1005.238219 1340.784084)">
                            <stop offset="0" stop-color="#ff7e73" stop-opacity="1"/>
                            <stop offset="0.994595" stop-color="#bf282f" stop-opacity="1"/>
                        </radialGradient>
                        <path id="path23" fill="url(#radialGradient11)" stroke="none" d="M 839.020386 1650.050171 L 826.655518 1618.08728 L 740.22876 1619.759888 L 740.852234 1651.951172 L 839.020386 1650.050171 Z"/>
                    </g>
                    <linearGradient id="linearGradient14" x1="726.695871" y1="1431.526821" x2="594.415591" y2="1528.333763" gradientUnits="userSpaceOnUse" gradientTransform="matrix(0.574845 -0.818263 0.818263 0.574845 -933.822725 1131.951017)">
                        <stop offset="0" stop-color="#ffffff" stop-opacity="1"/>
                        <stop offset="0.989189" stop-color="#cf793a" stop-opacity="0"/>
                    </linearGradient>
                    <path id="path24" fill="url(#linearGradient14)" stroke="none" style="mix-blend-mode:overlay" d="M 639.18988 1334.10498 L 644.139526 1589.748657 L 599.184753 1590.619141 L 594.491333 1348.170898 C 594.491333 1348.170898 608.040894 1334.708374 639.18988 1334.10498 Z"/>
                </g>
                <linearGradient id="linearGradient15" x1="694.557185" y1="246.250025" x2="785.208331" y2="370.119254" gradientUnits="userSpaceOnUse" gradientTransform="matrix(0.574845 -0.818263 0.818263 0.574845 12.996695 713.772811)">
                    <stop offset="0.005405" stop-color="#fffef3" stop-opacity="1"/>
                    <stop offset="1" stop-color="#f4b394" stop-opacity="1"/>
                </linearGradient>
                <path id="path25" fill="url(#linearGradient15)" stroke="none" d="M 615.039551 353.311279 L 768.508606 350.340332 C 768.508606 350.340332 757.621216 299.795654 688.420288 301.136108 C 619.219177 302.475464 615.039551 353.311279 615.039551 353.311279 Z"/>
            </g>
        </g>
        <linearGradient id="linearGradient16" x1="618.645844" y1="1844.433469" x2="627.360167" y2="1856.341063" gradientUnits="userSpaceOnUse" gradientTransform="matrix(0.574845 -0.818263 0.818263 0.574845 -1268.200675 1287.086483)">
            <stop offset="0.021622" stop-color="#ff4e00" stop-opacity="1"/>
            <stop offset="0.67027" stop-color="#ffff5b" stop-opacity="1"/>
            <stop offset="1" stop-color="#ffffff" stop-opacity="1"/>
        </linearGradient>
        <path id="path26" fill="url(#linearGradient16)" stroke="none" d="M 611.852539 1863.802612 C 611.931458 1867.876465 608.692505 1871.24292 604.618896 1871.321899 C 600.544861 1871.400635 597.17804 1868.162354 597.099182 1864.088501 C 597.020386 1860.014526 600.259338 1856.648071 604.333008 1856.569092 C 608.407043 1856.490356 611.773743 1859.728638 611.852539 1863.802612 Z"/>
        <linearGradient id="linearGradient17" x1="691.821641" y1="1882.522373" x2="699.259809" y2="1892.686136" gradientUnits="userSpaceOnUse" gradientTransform="matrix(0.574845 -0.818263 0.818263 0.574845 -1266.92133 1362.706413)">
            <stop offset="0.021622" stop-color="#ff4e00" stop-opacity="1"/>
            <stop offset="0.67027" stop-color="#ffff5b" stop-opacity="1"/>
            <stop offset="1" stop-color="#ffffff" stop-opacity="1"/>
        </linearGradient>
        <path id="path27" fill="url(#linearGradient17)" stroke="none" d="M 684.181885 1900.402222 C 684.249146 1903.879761 681.484558 1906.75293 678.007507 1906.820679 C 674.529968 1906.888184 671.65686 1904.123413 671.589111 1900.646606 C 671.521423 1897.168945 674.286377 1894.295898 677.763123 1894.227905 C 681.240662 1894.1604 684.11377 1896.925171 684.181885 1900.402222 Z"/>
        <linearGradient id="linearGradient18" x1="646.02481" y1="1909.320087" x2="649.743894" y2="1914.401984" gradientUnits="userSpaceOnUse" gradientTransform="matrix(0.574845 -0.818263 0.818263 0.574845 -1304.429279 1335.313008)">
            <stop offset="0.021622" stop-color="#ff4e00" stop-opacity="1"/>
            <stop offset="0.67027" stop-color="#ffff5b" stop-opacity="1"/>
            <stop offset="1" stop-color="#ffffff" stop-opacity="1"/>
        </linearGradient>
        <path id="path28" fill="url(#linearGradient18)" stroke="none" d="M 635.918579 1922.86084 C 635.952454 1924.599243 634.570496 1926.036133 632.831299 1926.070068 C 631.093018 1926.103638 629.655762 1924.721802 629.622803 1922.98291 C 629.588501 1921.244263 630.970825 1919.807617 632.709595 1919.773438 C 634.448364 1919.740112 635.885071 1921.122681 635.918579 1922.86084 Z"/>
        <linearGradient id="linearGradient19" x1="725.281907" y1="1834.989833" x2="733.99623" y2="1846.897426" gradientUnits="userSpaceOnUse" gradientTransform="matrix(0.574845 -0.818263 0.818263 0.574845 -1215.136227 1370.328069)">
            <stop offset="0.021622" stop-color="#ff4e00" stop-opacity="1"/>
            <stop offset="0.67027" stop-color="#ffff5b" stop-opacity="1"/>
            <stop offset="1" stop-color="#ffffff" stop-opacity="1"/>
        </linearGradient>
        <path id="path29" fill="url(#linearGradient19)" stroke="none" d="M 718.489014 1854.359375 C 718.56781 1858.43335 715.328979 1861.799683 711.254883 1861.878418 C 707.180847 1861.957153 703.814514 1858.718262 703.735718 1854.644287 C 703.65686 1850.570435 706.895752 1847.203979 710.969788 1847.125244 C 715.043884 1847.046509 718.410217 1850.2854 718.489014 1854.359375 Z"/>
        <linearGradient id="linearGradient20" x1="747.128838" y1="1849.690209" x2="755.843161" y2="1861.597802" gradientUnits="userSpaceOnUse" gradientTransform="matrix(0.574845 -0.818263 0.818263 0.574845 -1217.876759 1394.454577)">
            <stop offset="0.021622" stop-color="#ff4e00" stop-opacity="1"/>
            <stop offset="0.67027" stop-color="#ffff5b" stop-opacity="1"/>
            <stop offset="1" stop-color="#ffffff" stop-opacity="1"/>
        </linearGradient>
        <path id="path30" fill="url(#linearGradient20)" stroke="none" d="M 740.335999 1869.059814 C 740.414795 1873.133789 737.175842 1876.500244 733.101807 1876.578979 C 729.027771 1876.657715 725.661438 1873.418823 725.582642 1869.344849 C 725.503784 1865.270874 728.742676 1861.904541 732.816772 1861.825684 C 736.890442 1861.746704 740.25708 1864.985962 740.335999 1869.059814 Z"/>
        <linearGradient id="linearGradient21" x1="820.304488" y1="1887.778335" x2="827.742656" y2="1897.942098" gradientUnits="userSpaceOnUse" gradientTransform="matrix(0.574845 -0.818263 0.818263 0.574845 -1216.597332 1470.074386)">
            <stop offset="0.021622" stop-color="#ff4e00" stop-opacity="1"/>
            <stop offset="0.67027" stop-color="#ffff5b" stop-opacity="1"/>
            <stop offset="1" stop-color="#ffffff" stop-opacity="1"/>
        </linearGradient>
        <path id="path31" fill="url(#linearGradient21)" stroke="none" d="M 812.664795 1905.659302 C 812.732971 1909.136353 809.967529 1912.009888 806.490417 1912.076782 C 803.013306 1912.144653 800.139832 1909.380371 800.072571 1905.902954 C 800.004822 1902.425293 802.769836 1899.552246 806.246582 1899.484253 C 809.72406 1899.417725 812.597595 1902.181763 812.664795 1905.659302 Z"/>
        <linearGradient id="linearGradient22" x1="774.508263" y1="1914.576637" x2="778.227346" y2="1919.658534" gradientUnits="userSpaceOnUse" gradientTransform="matrix(0.574845 -0.818263 0.818263 0.574845 -1254.105024 1442.680949)">
            <stop offset="0.021622" stop-color="#ff4e00" stop-opacity="1"/>
            <stop offset="0.67027" stop-color="#ffff5b" stop-opacity="1"/>
            <stop offset="1" stop-color="#ffffff" stop-opacity="1"/>
        </linearGradient>
        <path id="path32" fill="url(#linearGradient22)" stroke="none" d="M 764.402405 1928.117432 C 764.435364 1929.856201 763.053467 1931.293091 761.314697 1931.326416 C 759.576416 1931.359985 758.139587 1929.978394 758.105835 1928.239014 C 758.07196 1926.50061 759.454224 1925.063965 761.192566 1925.030518 C 762.93219 1924.996826 764.36853 1926.379028 764.402405 1928.117432 Z"/>
        <linearGradient id="linearGradient23" x1="853.765656" y1="1840.246555" x2="862.479979" y2="1852.154149" gradientUnits="userSpaceOnUse" gradientTransform="matrix(0.574845 -0.818263 0.818263 0.574845 -1164.812284 1477.696154)">
            <stop offset="0.021622" stop-color="#ff4e00" stop-opacity="1"/>
            <stop offset="0.67027" stop-color="#ffff5b" stop-opacity="1"/>
            <stop offset="1" stop-color="#ffffff" stop-opacity="1"/>
        </linearGradient>
        <path id="path33" fill="url(#linearGradient23)" stroke="none" d="M 846.972412 1859.615723 C 847.051208 1863.689697 843.812378 1867.05603 839.738342 1867.134766 C 835.664673 1867.213745 832.297852 1863.975586 832.219055 1859.901611 C 832.140259 1855.827637 835.379089 1852.461304 839.452759 1852.382324 C 843.526794 1852.303589 846.893616 1855.541748 846.972412 1859.615723 Z"/>
    </g>
</svg>
